<svg version="1.1" viewBox="0 0 180 180" xmlns="http://www.w3.org/2000/svg"><g transform="translate(-18.487 10.373)"><path d="m181.59 28.395c-0.5162-5.1276-3.2196-9.9626-9.8199-9.1154l-127.11 18.321c-5.6187 1.1579-8.6804 3.9493-9.8155 9.1133l-8.5954 60.018c-0.80854 5.1617 2.9851 8.2396 9.8171 8.7208l12.606 0.69383-9.328 23.925 39.165-22.194 102.47 5.9309c5.3502 0.18827 10.413-4.3245 9.8158-9.1137l-9.2025-86.3" fill="#bbce31"/><path d="m107.14 75.182-18.829-24.752 32.03-6.8325s3.6205 0.36327 3.6606 3.1117zm-10.067 2.7631c-3.0694-6.7395-9.1052-12.106-16.69-14.882 1.5389-4.0282 2.9747-7.528 3.8796-9.5598l17.615 23.161c-1.591 0.43529-3.1985 0.86188-4.8046 1.2807zm-28.154 31.115c-13.769 0.31064-25.126-9.2747-25.38-21.415-0.25206-12.167 10.711-22.249 24.466-22.572 2.1259-0.04627 4.1823 0.16619 6.1605 0.5643-2.458 7.1376-4.8202 14.391-6.6364 20.266-0.367 1.1662 0.59062 2.7584 2.3556 2.4802 10.196-1.6207 16.361-2.5599 23.361-3.7524 0.07093 0.61455 0.13452 1.2313 0.14546 1.8597 0.2536 12.145-10.704 22.259-24.473 22.57zm9.9758-42.018c5.9488 2.3858 10.629 6.7767 12.929 12.233-5.6167 1.3773-10.895 2.5235-14.849 3.1588-1.3164 0.21406-3.1335 0.63908-2.8292-0.55421 1.0592-4.2625 2.8845-9.7254 4.7492-14.838zm43.523-28.201-39.073 8.0458c-2.5742 0.83101-3.2282 2.3017-4.019 4.3939-1.2271 3.2269-2.5114 6.7783-3.7944 10.427-2.4862-0.50711-5.0731-0.7768-7.7464-0.71882-17.112 0.38959-30.69 12.883-30.378 27.911 0.31774 15.035 14.428 26.904 31.53 26.518 17.084-0.38266 30.687-12.89 30.358-27.927-0.02756-1.31-0.1969-2.5844-0.4266-3.8412 1.0651-0.19091 2.1557-0.388 3.3117-0.59813 2.7539-0.5178 7.1665-1.5544 8.2244-3.4224l19.141-32.324c1.3157-2.365-4.5046-8.9354-7.1283-8.4641zm51.477 36.189c-2.1177 6.8107-8.971 11.213-17.457 11.213-2.6524 0-5.3219-0.43906-7.9341-1.3031-5.4154-1.8047-9.964-5.2326-12.813-9.6534-2.8337-4.4018-3.6396-9.267-2.2685-13.7 2.1177-6.8014 8.9672-11.198 17.449-11.198 2.6504 0 5.3181 0.44202 7.9265 1.3053 5.4154 1.7956 9.9678 5.2194 12.819 9.6427 2.8395 4.3955 3.6453 9.2622 2.2781 13.693zm-14.102-27.316c-3.1679-1.051-6.418-1.5821-9.647-1.5821-10.818 0-19.594 5.7866-22.347 14.748-1.7873 5.7696-0.82301 12.069 2.7192 17.734 3.5307 5.6422 9.1944 9.988 15.956 12.23 3.1775 1.055 6.4275 1.5906 9.6642 1.5906 10.804 0 19.569-5.7836 22.332-14.732 3.6587-11.883-4.7185-25.337-18.677-29.988zm-45.615-14.866c3.3398 0.08112 7.9207-0.09694 13.329-0.65294 1.6117-0.16423 1.8713-2.6889-0.43346-3.053-4.0998-0.64898-10.338-1.3336-13.922-1.4147-3.5918-0.07518-2.7936 5.0118 1.0273 5.1206zm-44.049 13.683c3.2321-0.72278 9.1054-1.8937 14.181-2.9788 2.7606-0.59595 1.0949-5.1483-1.2188-5.1095-3.7952 0.04631-12.757 0.69014-15.778 1.3765-4.4851 1.0194-0.85929 7.5387 2.8158 6.7118" fill="#014b66"/></g></svg>
