<svg version="1.1" viewBox="0 0 64 64" xmlns="http://www.w3.org/2000/svg"><g transform="translate(-18.487 10.373)"><path d="m76.478 3.4108c-0.18354-1.8231-1.1448-3.5423-3.4915-3.241l-45.196 6.5141c-1.9977 0.4117-3.0864 1.4042-3.49 3.2403l-3.0561 21.34c-0.28748 1.8353 1.0614 2.9296 3.4905 3.1007l4.482 0.2467-3.3166 8.5067 13.925-7.8913 36.434 2.1088c1.9023 0.06694 3.7024-1.5376 3.4901-3.2404l-3.272-30.684" fill="#bbce31"/><path d="m50.009 20.046-6.6948-8.8006 11.388-2.4293s1.2873 0.12916 1.3015 1.1064zm-3.5794 0.98244c-1.0913-2.3963-3.2374-4.3045-5.9341-5.2914 0.54716-1.4323 1.0577-2.6766 1.3794-3.399l6.263 8.2351c-0.5657 0.15477-1.1372 0.30645-1.7083 0.45538zm-10.01 11.063c-4.8958 0.11045-8.9337-3.2977-9.0239-7.6143-0.08962-4.326 3.8085-7.9109 8.699-8.0258 0.75587-0.01645 1.487 0.05909 2.1904 0.20064-0.87394 2.5378-1.7139 5.1169-2.3596 7.2057-0.13049 0.41464 0.21 0.98075 0.83755 0.88184 3.6252-0.57624 5.8171-0.91019 8.3061-1.3342 0.02522 0.21851 0.04783 0.43779 0.05172 0.66122 0.09017 4.3182-3.8058 7.9144-8.7014 8.0249zm3.5469-14.94c2.1151 0.84828 3.7793 2.4095 4.5969 4.3496-1.9971 0.48971-3.8739 0.89725-5.2796 1.1231-0.46807 0.07611-1.1141 0.22723-1.0059-0.19705 0.37661-1.5156 1.0256-3.4579 1.6886-5.2757zm15.475-10.027-13.893 2.8607c-0.91528 0.29547-1.1478 0.81838-1.429 1.5623-0.43629 1.1473-0.89295 2.4101-1.3491 3.7075-0.88398-0.18031-1.8038-0.27619-2.7543-0.25558-6.0842 0.13852-10.912 4.5807-10.801 9.9237 0.11297 5.3458 5.13 9.566 11.211 9.4286 6.0744-0.13606 10.911-4.5832 10.794-9.9296-0.0098-0.46579-0.07001-0.91891-0.15168-1.3658 0.37872-0.06788 0.76646-0.13796 1.1775-0.21267 0.97917-0.18411 2.5481-0.55267 2.9242-1.2168l6.8057-11.493c0.46779-0.8409-1.6016-3.177-2.5345-3.0094zm18.303 12.867c-0.75295 2.4216-3.1897 3.9869-6.2069 3.9869-0.94306 0-1.8922-0.15611-2.821-0.46333-1.9255-0.64166-3.5427-1.8605-4.5557-3.4323-1.0076-1.5651-1.2941-3.2949-0.80658-4.871 0.75295-2.4183 3.1883-3.9816 6.2042-3.9816 0.94238 0 1.8909 0.15716 2.8183 0.4641 1.9255 0.63843 3.5441 1.8558 4.5578 3.4285 1.0096 1.5628 1.2961 3.2932 0.80998 4.8687zm-5.014-9.7125c-1.1264-0.3737-2.2819-0.56252-3.43-0.56252-3.8462 0-6.9667 2.0575-7.9457 5.2438-0.63549 2.0514-0.29263 4.2911 0.96681 6.3054 1.2554 2.0061 3.2691 3.5513 5.6733 4.3483 1.1298 0.37511 2.2853 0.56554 3.4361 0.56554 3.8415 0 6.9578-2.0564 7.9403-5.2381 1.3009-4.2252-1.6777-9.0087-6.6408-10.662zm-16.219-5.2856c1.1875 0.028843 2.8163-0.034469 4.739-0.23216 0.57303-0.058392 0.66536-0.95606-0.15412-1.0855-1.4577-0.23075-3.6758-0.47416-4.9502-0.503-1.2771-0.026731-0.9933 1.782 0.36528 1.8207zm-15.662 4.8652c1.1492-0.25699 3.2375-0.67332 5.0422-1.0591 0.98155-0.21189 0.38931-1.8305-0.43336-1.8167-1.3494 0.016467-4.536 0.24538-5.6101 0.48943-1.5947 0.36244-0.30553 2.6804 1.0012 2.3864" fill="#014b66"/></g></svg>
