<svg version="1.1" viewBox="0 0 180 180" xmlns="http://www.w3.org/2000/svg"><g transform="translate(-18.487 10.373)"><path d="m181.59 28.395c-0.5162-5.1276-3.2196-9.9626-9.8199-9.1154l-127.11 18.321c-5.6187 1.1579-8.6804 3.9493-9.8155 9.1133l-8.5954 60.018c-0.80854 5.1617 2.9851 8.2396 9.8171 8.7208l12.606 0.69383-9.328 23.925 39.165-22.194 102.47 5.9309c5.3502 0.18826 10.413-4.3245 9.8158-9.1137l-9.2025-86.3" fill="#bbce31"/><g fill="#014b66"><path d="m39.698 104.13v-8.8385c0-3.9668-0.69586-5.4633-0.69586-6.1947 0-0.59069 0.27753-0.93907 1.8436-0.93907 1.3925 0 1.6705 0.13836 1.9144 1.0442l0.41832 1.6008c0.90416-1.9836 2.4006-2.889 4.2439-2.889 0.62713 0 1.323 0.10557 1.5669 0.20952 0.52187 0.17278 0.76498 0.48755 0.76498 1.8793 0 1.4604-0.45182 1.6344-0.76498 1.6344-0.27875 0-0.93978-0.13917-1.8444-0.13917-2.4011 0-3.4109 2.0884-3.4109 6.0551v6.5771c0 1.0437-0.45071 1.1829-2.0176 1.1829-1.5313 0-2.0183-0.13917-2.0183-1.1829"/><path d="m63.083 98.774v-0.93978l-3.0273 0.10405c-2.1923 0.06994-2.749 0.55709-2.749 2.2267 0 1.9491 0.62541 2.2615 2.0532 2.2615 1.9132 0 3.7232-1.0773 3.7232-3.6525zm-9.6391 1.8089c0-3.6184 1.6-5.1497 6.6118-5.1497h3.0273v-1.7397c0-2.2623-0.73138-2.4362-2.8534-2.4362-2.5407 0-4.3155 0.55749-5.045 0.55749-0.48826 0-0.73189-0.45274-0.73189-1.6013 0-1.1829 0.24362-1.4965 0.86984-1.7048 1.113-0.34838 3.3413-0.69707 5.4289-0.69707 4.2795 0 6.3326 0.69707 6.3326 4.8729v5.4965c0 4.0024 0.69666 5.464 0.69666 6.1947 0 0.62672-0.27875 0.93978-1.8444 0.93978-1.3917 0-1.6701-0.13917-1.9144-1.0445l-0.52187-1.9484c-0.94019 2.2971-2.9917 3.3413-5.568 3.3413-3.0621 0-4.4882-1.4277-4.4882-5.0809"/><path d="m84.17 97.693v-1.878c0-3.6188-0.62592-4.5934-3.3397-4.5934-2.5758 0-3.2374 0.66144-3.2374 5.742 0 4.5922 0.52278 5.3236 2.993 5.3236 2.4699 0 3.584-0.76579 3.584-4.5942zm-10.683-0.69515c0-7.76 1.984-9.1872 6.3687-9.1872 2.1568 0 3.5137 0.52308 4.2444 1.9492v-6.0888c0-1.0101 0.48705-1.1497 2.0191-1.1497 1.5649 0 2.0171 0.13958 2.0171 1.1497v14.509c0 4.0024 0.73189 5.464 0.73189 6.1947 0 0.62672-0.27875 0.93978-1.8793 0.93978-1.3924 0-1.636-0.13917-1.8788-1.0445l-0.45314-1.6348c-0.80061 1.9835-2.4711 3.0278-5.3937 3.0278-4.5933 0-5.7764-1.7752-5.7764-8.665"/><path d="m94.68 104.13v-20.461c0-1.0101 0.45152-1.1497 2.0179-1.1497 1.5301 0 2.0176 0.13958 2.0176 1.1497v20.461c0 1.0437-0.48755 1.1829-2.0176 1.1829-1.5664 0-2.0179-0.13917-2.0179-1.1829"/><path d="m115.21 96.824c0-4.9058-0.45314-5.6017-2.993-5.6017-2.7834 0-3.2709 0.87025-3.2709 5.3592 0 4.9058 0.45192 5.7064 2.9922 5.7064 2.7849 0 3.2717-0.97379 3.2717-5.464zm-10.37 0.03553c0-7.4112 2.0883-9.048 7.5168-9.048 5.2538 0 6.9585 1.3929 6.9585 8.7002 0 7.4468-2.0527 9.1521-7.516 9.1521-5.2545 0-6.9593-1.4965-6.9593-8.8042"/><path d="m135.78 96.824c0-4.9058-0.45243-5.6017-2.7844-5.6017-2.8178 0-3.6195 1.2874-3.6195 5.6372v3.8972c0 1.0442 0.34919 1.5313 3.0274 1.5313 2.7844 0 3.3765-0.97379 3.3765-5.464zm-10.37 4.5598v-17.712c0-1.0101 0.45274-1.1497 2.0181-1.1497 1.5314 0 2.0182 0.13958 2.0182 1.1497v6.7154c0.87045-1.636 2.5061-2.5758 4.9768-2.5758 4.246 0 5.4626 1.3929 5.4626 8.7002 0 7.586-1.9838 9.1521-7.7248 9.1521-5.5331 0-6.751-1.5313-6.751-4.2799"/><path d="m156.34 96.824c0-4.9058-0.45243-5.6017-2.7834-5.6017-2.8198 0-3.6194 1.2874-3.6194 5.6372v3.8972c0 1.0442 0.34818 1.5313 3.0274 1.5313 2.7844 0 3.3755-0.97379 3.3755-5.464zm-10.371 4.5598v-17.712c0-1.0101 0.45345-1.1497 2.0203-1.1497 1.5304 0 2.0182 0.13958 2.0182 1.1497v6.7154c0.86944-1.636 2.5041-2.5758 4.9757-2.5758 4.244 0 5.4626 1.3929 5.4626 8.7002 0 7.586-1.9838 9.1521-7.7258 9.1521-5.5314 0-6.7511-1.5313-6.7511-4.2799"/><path d="m167.51 88.16c1.6336 0 1.9828 0.17439 2.1913 1.0442l2.9929 12.736h0.38259l3.1306-12.736c0.20951-0.86984 0.55769-1.0442 2.1579-1.0442 1.8452 0 2.1579 0.34838 2.1579 1.0082 0 0.31438-0.0698 0.90537-0.55769 2.5414l-4.3492 14.823c-1.2186 4.2107-2.1225 5.6024-5.8108 5.6024-1.253 0-2.5759-0.20912-3.3755-0.48634-0.62652-0.21033-0.93928-0.48705-0.93928-1.6712 0-1.2177 0.24393-1.6349 0.72976-1.6349 0.41802 0 1.3927 0.31316 3.1326 0.31316 1.8087 0 2.1579-0.41791 2.5405-1.8796l0.34818-1.4614c-2.0536 0-2.5405-0.48705-2.9231-1.8439l-3.2713-11.31c-0.62652-2.1219-0.62652-2.6438-0.62652-2.9569 0-0.62713 0.20851-1.0442 2.0891-1.0442"/></g><path d="m127.7 58.748-9.9804-12.662 16.977-3.4952s1.919 0.18583 1.9403 1.5918zm-5.3361 1.4135c-1.6269-3.4476-4.8262-6.1931-8.8464-7.6129 0.81569-2.0606 1.5767-3.8509 2.0564-4.8903l9.3367 11.848c-0.84333 0.22267-1.6954 0.44089-2.5467 0.65517zm-14.923 15.917c-7.2985 0.15891-13.318-4.7445-13.453-10.955-0.1336-6.224 5.6776-11.382 12.968-11.547 1.1268-0.02368 2.2168 0.08502 3.2654 0.28867-1.3028 3.6512-2.555 7.3618-3.5176 10.367-0.19453 0.59656 0.31306 1.411 1.2486 1.2687 5.4043-0.82905 8.672-1.3095 12.383-1.9195 0.0376 0.31438 0.0713 0.62986 0.0771 0.95132 0.13441 6.2128-5.6736 11.387-12.972 11.546zm5.2877-21.494c3.1532 1.2205 5.634 3.4666 6.853 6.2579-2.9772 0.70456-5.7751 1.2909-7.8707 1.6159-0.69778 0.10952-1.6609 0.32692-1.4996-0.2835 0.56144-2.1805 1.529-4.975 2.5173-7.5903zm23.069-14.426-20.711 4.1158c-1.3645 0.4251-1.7111 1.1774-2.1303 2.2477-0.65041 1.6507-1.3312 3.4674-2.0112 5.334-1.3178-0.25941-2.689-0.39737-4.106-0.36772-9.0702 0.19929-16.268 6.5904-16.102 14.278 0.16842 7.6912 7.6476 13.763 16.713 13.565 9.0555-0.19575 16.266-6.5941 16.091-14.286-0.0146-0.67014-0.10435-1.3221-0.22612-1.965 0.56458-0.09767 1.1426-0.19848 1.7554-0.30597 1.4597-0.26488 3.7986-0.79515 4.3593-1.7507l10.146-16.535c0.69737-1.2098-2.3877-4.5709-3.7784-4.3298zm27.286 18.513c-1.1225 3.484-4.7551 5.7361-9.2531 5.7361-1.4059 0-2.8209-0.2246-4.2055-0.6666-2.8705-0.92318-5.2814-2.6767-6.7915-4.9382-1.502-2.2517-1.9292-4.7405-1.2024-7.008 1.1225-3.4793 4.7531-5.7285 9.249-5.7285 1.4049 0 2.8188 0.22612 4.2014 0.66772 2.8705 0.91853 5.2834 2.67 6.7946 4.9327 1.5051 2.2485 1.9322 4.7381 1.2075 7.0048zm-7.4747-13.974c-1.6792-0.53766-3.4018-0.80932-5.1134-0.80932-5.7338 0-10.386 2.9601-11.845 7.5445-0.94737 2.9514-0.43624 6.1737 1.4413 9.0718 1.8715 2.8863 4.8735 5.1093 8.4576 6.256 1.6842 0.53968 3.4069 0.81367 5.1225 0.81367 5.7268 0 10.373-2.9586 11.837-7.5362 1.9393-6.0789-2.501-12.961-9.8999-15.34zm-24.178-7.6046c1.7702 0.0415 4.1984-0.04959 7.0648-0.33401 0.85426-0.08401 0.99191-1.3755-0.22976-1.5618-2.1731-0.33198-5.4798-0.68219-7.3796-0.72369-1.9039-0.03846-1.4808 2.5638 0.54454 2.6194zm-23.348 6.9997c1.7132-0.36974 4.8263-0.96873 7.5168-1.5238 1.4633-0.30486 0.58037-2.6336-0.64605-2.6138-2.0116 0.02369-6.7621 0.35304-8.3633 0.70416-2.3774 0.52146-0.45547 3.8564 1.4925 3.4334" fill="#fff"/></g></svg>
