<svg version="1.1" viewBox="0 0 64 64" xmlns="http://www.w3.org/2000/svg"><g transform="translate(-18.487 10.373)"><path d="m76.478 3.4108c-0.18354-1.8231-1.1448-3.5423-3.4915-3.241l-45.196 6.5141c-1.9977 0.4117-3.0864 1.4042-3.49 3.2403l-3.0561 21.34c-0.28748 1.8353 1.0614 2.9296 3.4905 3.1007l4.482 0.2467-3.3166 8.5067 13.925-7.8913 36.434 2.1088c1.9023 0.06694 3.7024-1.5376 3.4901-3.2404l-3.272-30.684" fill="#bbce31"/><path d="m50.086 19.822-5.5219-7.2587 9.3931-2.0037s1.0617 0.10653 1.0735 0.91256zm-2.9523 0.81032c-0.90014-1.9764-2.6702-3.5504-4.8945-4.3643 0.4513-1.1813 0.87236-2.2077 1.1377-2.8035l5.1657 6.7923c-0.46659 0.12766-0.938 0.25276-1.409 0.3756zm-8.2564 9.1249c-4.0381 0.0911-7.3685-2.7199-7.4429-6.2803-0.07392-3.5681 3.1412-6.5249 7.1749-6.6197 0.62344-0.01357 1.2265 0.04874 1.8067 0.16549-0.72083 2.0932-1.4136 4.2204-1.9462 5.9433-0.10763 0.342 0.17321 0.80892 0.69081 0.72734 2.99-0.47528 4.798-0.75073 6.8509-1.1004 0.0208 0.18022 0.03945 0.36109 0.04266 0.54538 0.07437 3.5617-3.139 6.5278-7.1769 6.6189zm2.9255-12.322c1.7445 0.69966 3.1171 1.9874 3.7916 3.5876-1.6472 0.40391-3.1952 0.74005-4.3546 0.92637-0.38606 0.06278-0.91895 0.18742-0.82968-0.16253 0.31063-1.25 0.84592-2.8521 1.3928-4.3514zm12.764-8.2704-11.459 2.3595c-0.75493 0.2437-0.94672 0.675-1.1786 1.2886-0.35985 0.94633-0.73651 1.9878-1.1128 3.0579-0.72911-0.14872-1.4877-0.2278-2.2717-0.2108-5.0183 0.11425-9.0003 3.7782-8.9087 8.1851 0.09318 4.4093 4.2312 7.89 9.2467 7.7767 5.0102-0.11222 8.9993-3.7803 8.9028-8.1899-0.0081-0.38418-0.05774-0.75792-0.12511-1.1265 0.31237-0.05599 0.63218-0.11379 0.9712-0.17541 0.80762-0.15185 2.1017-0.45584 2.4119-1.0037l5.6134-9.4794c0.38584-0.69357-1.321-2.6204-2.0905-2.4822zm15.096 10.613c-0.62103 1.9973-2.6309 3.2884-5.1195 3.2884-0.77783 0-1.5607-0.12876-2.3268-0.38215-1.5881-0.52924-2.922-1.5345-3.7576-2.831-0.83103-1.2909-1.0673-2.7177-0.66527-4.0176 0.62103-1.9946 2.6297-3.284 5.1172-3.284 0.77727 0 1.5596 0.12963 2.3245 0.38279 1.5881 0.52658 2.9232 1.5306 3.7592 2.8278 0.83271 1.289 1.069 2.7163 0.66807 4.0157zm-4.1356-8.0109c-0.92903-0.30823-1.8821-0.46397-2.8291-0.46397-3.1724 0-5.7461 1.697-6.5536 4.3251-0.52415 1.692-0.24136 3.5393 0.79743 5.2007 1.0354 1.6546 2.6964 2.9291 4.6793 3.5865 0.93183 0.30939 1.8849 0.46646 2.8341 0.46646 3.1684 0 5.7388-1.6961 6.5491-4.3204 1.073-3.4849-1.3837-7.4304-5.4773-8.7944zm-13.377-4.3596c0.97943 0.02379 2.3229-0.02843 3.9088-0.19148 0.47264-0.048162 0.54879-0.78856-0.12712-0.89532-1.2023-0.19032-3.0318-0.39109-4.0829-0.41488-1.0533-0.022048-0.81927 1.4698 0.30128 1.5017zm-12.918 4.0128c0.94784-0.21196 2.6703-0.55536 4.1588-0.87356 0.80959-0.17477 0.3211-1.5098-0.35744-1.4984-1.113 0.013582-3.7413 0.20239-4.6272 0.40368-1.3153 0.29894-0.252 2.2108 0.82577 1.9683" fill="#fff"/></g></svg>
